Coordinates
version=1
nRows=16
nColumns=36
inDegrees=yes

Units are S.I. units (second, meters, Newtons, ...)
If the header above contains a line with 'inDegrees', this indicates whether rotational values are in degrees (yes) or radians (no).

endheader
time	pelvis_tilt	pelvis_list	pelvis_rotation	pelvis_tx	pelvis_ty	pelvis_tz	hip_flexion_r	hip_adduction_r	hip_rotation_r	knee_angle_r	knee_angle_r_beta	ankle_angle_r	subtalar_angle_r	mtp_angle_r	hip_flexion_l	hip_adduction_l	hip_rotation_l	knee_angle_l	knee_angle_l_beta	ankle_angle_l	subtalar_angle_l	mtp_angle_l	lumbar_extension	lumbar_bending	lumbar_rotation	arm_flex_r	arm_add_r	arm_rot_r	elbow_flex_r	pro_sup_r	arm_flex_l	arm_add_l	arm_rot_l	elbow_flex_l	pro_sup_l
      0.00000000	     -3.76581533	      0.07714833	      0.65118436	     -0.15329043	      1.04794811	     -0.64626099	      2.49662958	     -7.52499580	    -11.21080432	      4.49445658	      0.07844307	      5.78908790	      2.07166610	     -3.96834816	      3.59649734	     -6.15329201	     -5.94455105	      3.50159256	      0.06111432	      5.83183253	      6.60808819	     -3.96834816	     -1.50472208	      1.11400448	     -4.88460427	    -12.23810352	     -5.14065427	    -13.51091318	     39.05093201	     97.77234935	    -16.54707107	     -4.09056080	     -9.52622588	     38.86214574	     89.04578750
      0.01000000	     -3.91209824	      0.15276262	      0.55663146	     -0.15465074	      1.04763231	     -0.64604117	      3.23105834	     -7.67570152	    -11.20273336	      5.41337358	      0.09448119	      6.00905921	      1.70877885	     -4.65189570	      3.99509709	     -6.08684454	     -5.71339870	      3.84641598	      0.06713262	      5.73016368	      5.93671444	     -4.65189570	     -1.59288774	      1.11438612	     -4.72817213	    -12.24998223	     -5.23471790	    -13.19375614	     39.52133437	     93.93123882	    -16.53045275	     -4.13279551	     -9.34015426	     39.62282444	     85.50428401
      0.02000000	     -4.02606537	      0.15871690	      0.47935169	     -0.15600059	      1.04752439	     -0.64592650	      3.78095424	     -7.75101218	    -11.19287186	      6.04347761	      0.10547858	      6.20515016	      1.65242208	     -4.82588249	      4.44235001	     -6.13122027	     -5.84967877	      4.33785859	      0.07570991	      5.83429755	      5.95719918	     -4.82588249	     -1.71776585	      1.21258341	     -4.56957266	    -12.25251534	     -5.35149868	    -13.07550075	     39.70308918	     93.45323942	    -16.44005828	     -4.12605216	     -9.28633966	     39.93681755	     84.91054544
      0.03000000	     -4.19919044	      0.06923381	      0.41839071	     -0.15745781	      1.04738267	     -0.64588283	      4.36784984	     -7.74189779	    -11.34437323	      6.61659945	      0.11548145	      6.45888647	      1.96881850	     -6.01537925	      5.09259061	     -6.31621527	     -6.27600340	      5.10173920	      0.08904215	      6.26503985	      6.48080419	     -6.01537925	     -1.79268568	      1.44111137	     -4.40969135	    -12.31047239	     -5.37418890	    -14.01237000	     39.60333167	    100.45943313	    -16.38544549	     -3.99306937	     -9.98774913	     39.74944929	     90.41576897
      0.04000000	     -4.36142877	      0.00878016	      0.33639611	     -0.15915294	      1.04717235	     -0.64574666	      5.06897158	     -7.75290409	    -11.21603061	      7.39814874	      0.12912205	      6.51888498	      1.75804134	     -6.11420748	      5.66480052	     -6.42840267	     -6.18035681	      5.69833165	      0.09945465	      6.35775070	      6.17677681	     -6.11420748	     -1.93051033	      1.62128675	     -4.24131791	    -12.27820015	     -5.49721756	    -13.97953583	     39.89772881	     99.21695837	    -16.31503437	     -3.98583541	     -9.94679939	     40.24313472	     89.40156100
      0.05000000	     -4.52867710	      0.02478053	      0.25523655	     -0.16101073	      1.04676948	     -0.64556305	      5.93684137	     -7.88613739	    -11.23389480	      8.48722323	      0.14812999	      6.85863360	      1.69937403	     -6.52567005	      6.30097306	     -6.45659954	     -6.06846693	      6.40184689	      0.11173331	      6.44301207	      5.70505607	     -6.52567005	     -2.10283669	      1.72765884	     -4.11947027	    -12.15867447	     -5.55652107	    -14.20771657	     39.97595380	    100.20103220	    -16.26398825	     -3.94602604	    -10.26195159	     40.55886234	     90.80879518
      0.06000000	     -4.73160054	      0.07880025	      0.14377715	     -0.16296978	      1.04624572	     -0.64543282	      6.89000777	     -8.05225145	    -10.96564166	      9.64460590	      0.16833013	      7.16712016	      1.33604729	     -6.70270332	      7.05110493	     -6.47579336	     -6.29099466	      7.25508472	      0.12662512	      6.78945365	      5.73731459	     -6.70270332	     -2.24215033	      1.80494024	     -3.91876110	    -12.09807019	     -5.71272811	    -14.11394219	     40.14645091	    100.19129116	    -16.17286426	     -3.97188976	    -10.23899131	     40.97667163	     90.96060433
      0.07000000	     -4.90079350	      0.10991222	      0.06036792	     -0.16512295	      1.04574961	     -0.64538529	      7.83743121	     -8.19019943	    -10.58120729	     10.83325233	      0.18907592	      7.27557748	      0.61737508	     -6.89903690	      7.73938351	     -6.47324160	     -6.00118967	      8.02970747	      0.14014483	      6.83617734	      5.01315530	     -6.89903690	     -2.49103858	      1.94768512	     -3.73724889	    -12.06992036	     -5.81825364	    -13.96702616	     40.95768752	     94.32362981	    -16.02708860	     -3.94688489	    -10.03662492	     41.98944484	     85.47653514
      0.08000000	     -5.10528939	      0.15563325	     -0.01953035	     -0.16748204	      1.04506011	     -0.64523929	      8.93894152	     -8.37703399	    -10.33559373	     12.25337402	      0.21386172	      7.61282842	      0.19569823	     -6.96641590	      8.57894258	     -6.50352952	     -5.90885458	      9.00523259	      0.15717096	      7.12023840	      4.70408692	     -6.96641590	     -2.72181120	      2.06356161	     -3.54598344	    -12.02111666	     -5.97375453	    -13.80203651	     41.45869101	     92.64479876	    -15.89134460	     -3.96614766	     -9.90453633	     42.65730184	     84.04308271
      0.09000000	     -5.23117484	      0.19825181	     -0.15156613	     -0.16989348	      1.04437957	     -0.64482235	      9.98257107	     -8.53399065	     -9.98188902	     13.67972445	      0.23875623	      7.95751042	      0.00302958	     -7.02211406	      9.39065982	     -6.59537239	     -6.14724499	     10.10313310	      0.17633294	      7.42604169	      4.59540048	     -7.02211406	     -3.07205997	      2.15662309	     -3.37699982	    -11.84363782	     -6.13696493	    -13.62473391	     41.76959742	     91.61980271	    -15.73410814	     -4.02389870	     -9.75621876	     43.14438553	     83.10696608
      0.10000000	     -5.54013270	      0.25493201	     -0.25431098	     -0.17246846	      1.04324935	     -0.64433007	     11.26661328	     -8.68254568	     -9.52633734	     15.19200789	      0.26515056	      8.32727812	     -0.47803297	     -7.10028033	     10.46579885	     -6.69598633	     -6.29701399	     11.30157316	      0.19724966	      7.89548806	      4.78617142	     -7.10028033	     -3.24455247	      2.24232337	     -3.20873400	    -11.81995494	     -6.23757124	    -13.55077414	     42.56629616	     88.21082648	    -15.64153721	     -4.05600695	     -9.67090289	     44.05162500	     80.33456711
      0.11000000	     -5.83892253	      0.30151673	     -0.31472208	     -0.17525248	      1.04186478	     -0.64385727	     12.59232115	     -8.85297727	     -9.29648183	     16.79817521	      0.29318347	      8.72953936	     -0.74712877	     -7.24416880	     11.70616563	     -6.85427866	     -6.58999011	     12.81865078	      0.22372766	      8.52885584	      4.96745191	     -7.24416880	     -3.47282195	      2.35298301	     -3.18442540	    -11.62346484	     -6.25189864	    -14.58263682	     42.09380625	    101.30531025	    -15.53608724	     -3.99766600	    -10.38309582	     43.54373789	     89.85403243
      0.12000000	     -6.14245865	      0.38323599	     -0.37447280	     -0.17812339	      1.04023816	     -0.64330910	     13.90841880	     -9.03332970	     -8.93195230	     18.36267419	      0.32048912	      9.22993142	     -1.08513063	     -7.25916744	     12.93239788	     -6.95143644	     -6.57765601	     14.28296235	      0.24928472	      9.06201094	      4.89852249	     -7.25916744	     -3.71795119	      2.43039263	     -3.07278017	    -11.57846982	     -6.35701399	    -14.24839537	     43.07073229	     96.53407894	    -15.35959113	     -4.06361148	    -10.21612819	     44.31823184	     86.60385297
      0.13000000	     -6.50129295	      0.43860039	     -0.38968772	     -0.18107475	      1.03826447	     -0.64270952	     15.20475441	     -9.13333640	     -8.43750165	     19.78067564	      0.34523792	      9.63355954	     -1.66434255	     -7.30127457	     14.18413825	     -7.00368412	     -6.06616388	     15.62175109	      0.27265099	      9.32900702	      4.28591782	     -7.30127457	     -3.93401645	      2.53967170	     -3.02225170	    -11.61312302	     -6.47093721	    -14.05606040	     44.27875316	     92.07437799	    -15.25495526	     -4.11106409	    -10.21784679	     45.29936202	     82.80023492
      0.14000000	     -6.92769445	      0.45228142	     -0.39005836	     -0.18417393	      1.03588061	     -0.64208116	     16.53375437	     -9.16650123	     -7.99282313	     21.09451946	      0.36816882	      9.80692954	     -2.38694594	     -7.30509151	     15.74812786	     -7.22157480	     -6.23766419	     17.42081748	      0.30405062	      9.92617206	      4.11877924	     -7.30509151	     -4.08521823	      2.67292593	     -2.95128469	    -11.61282741	     -6.69178644	    -13.80868863	     44.88654648	     93.02225610	    -15.07964414	     -4.22156113	    -10.16449735	     45.62177296	     83.50534387
      0.15000000	     -6.78813565	      0.50579218	     -0.33678126	     -0.18709772	      1.03426782	     -0.64175739	     17.13601477	     -9.29585677	     -7.74200483	     22.23222145	      0.38802546	      9.98172115	     -2.77575599	     -7.30608259	     16.45640580	     -7.29714850	     -6.09830705	     18.70404977	      0.32644725	     10.11452941	      3.98077431	     -7.30608259	     -4.92553266	      2.80927606	     -2.99279861	    -11.32112425	     -6.83221542	    -13.78191119	     45.27377836	     93.26779653	    -14.72012547	     -4.28884000	    -10.15757212	     45.81601895	     83.68289655
